#Comment line ignore any data following # character 
#Hierarchical Translation and Rotation (.htr) file 
[Header]	
#Header keywords are followed by a single value 
FileType HTR		#Single word string
DataType HTRS		#Translation followed by rotation and scale data
FileVersion 1		#integer
NumSegments 64		#integer
NumFrames 3		#integer
DataFrameRate 30		#integer, data frame rate in this file
EulerRotationOrder ZYX
CalibrationUnits mm
RotationUnits Degrees
GlobalAxisofGravity Y
BoneLengthAxis Y
ScaleFactor 1.00
[SegmentNames&Hierarchy]
#CHILD	PARENT
Pinger_Root GLOBAL
Pelvis Pinger_Root
L_Hip Pelvis
R_Hip Pelvis
Rear_Leg01 Pelvis
Spine1 Pelvis
L_Leg01 L_Hip
L_Leg02 L_Leg01
L_Leg03 L_Leg02
L_Foot L_Leg03
L_Toe1_01 L_Foot
L_Toe2_01 L_Foot
L_Toe3_01 L_Foot
planeAlignerLeft L_Foot
L_Toe1_02 L_Toe1_01
L_Toe1_03 L_Toe1_02
L_Toe2_02 L_Toe2_01
L_Toe2_03 L_Toe2_02
L_Toe3_02 L_Toe3_01
L_Toe3_03 L_Toe3_02
planeLockWeightLeft planeAlignerLeft
R_Leg01 R_Hip
R_Leg02 R_Leg01
R_Leg03 R_Leg02
R_Foot R_Leg03
planeAlignerRight R_Foot
R_Toe1_01 R_Foot
R_Toe2_01 R_Foot
R_Toe3_01 R_Foot
planeLockWeightRight planeAlignerRight
R_Toe1_02 R_Toe1_01
R_Toe1_03 R_Toe1_02
R_Toe2_02 R_Toe2_01
R_Toe2_03 R_Toe2_02
R_Toe3_02 R_Toe3_01
R_Toe3_03 R_Toe3_02
Rear_Leg02 Rear_Leg01
Rear_Leg03 Rear_Leg02
Rear_Leg04 Rear_Leg03
Rear_Foot Rear_Leg04
planeAlignerCenter Rear_Foot
Rear_Toe1_01 Rear_Foot
Rear_Toe2_01 Rear_Foot
Rear_Toe3_01 Rear_Foot
planeLockWeightCenter planeAlignerCenter
Rear_Toe1_02 Rear_Toe1_01
Rear_Toe1_03 Rear_Toe1_02
Rear_Toe2_02 Rear_Toe2_01
Rear_Toe2_03 Rear_Toe2_02
Rear_Toe3_02 Rear_Toe3_01
Rear_Toe3_03 Rear_Toe3_02
Back_Bone Spine1
Head Spine1
Motor_Bone Back_Bone
Ping_Mechanism Back_Bone
BN_LookIK Head
bottomMouth Head
L_Mouth01 Head
L_mouthFront Head
mouthGun Head
R_Mouth01 Head
R_mouthFront Head
TopMouth Head
weapon_bone Head
[BasePosition]
#SegmentName Tx, Ty, Tz, Rx, Ry, Rz, BoneLength
Pinger_Root 0.000000 0.000000 0.000000 -90.000000 0.000000 0.000000 10.000000 
Pelvis 0.000000 0.000000 0.000000 0.000000 0.000000 0.000000 10.000000 
L_Hip 0.000000 0.000000 0.000000 0.000000 0.000000 0.000000 10.000000 
R_Hip 0.000000 0.000000 0.000000 0.000000 0.000000 0.000000 10.000000 
Rear_Leg01 0.000000 0.000000 0.000000 0.000000 0.000000 0.000000 10.000000 
Spine1 0.000000 0.000000 0.000000 0.000000 0.000000 0.000000 10.000000 
L_Leg01 0.000000 0.000000 0.000000 0.000000 0.000000 0.000000 10.000000 
L_Leg02 0.000000 0.000000 0.000000 0.000000 0.000000 0.000000 10.000000 
L_Leg03 0.000000 0.000000 0.000000 0.000000 0.000000 0.000000 10.000000 
L_Foot 0.000000 0.000000 0.000000 0.000000 0.000000 0.000000 10.000000 
L_Toe1_01 0.000000 0.000000 0.000000 0.000000 0.000000 0.000000 10.000000 
L_Toe2_01 0.000000 0.000000 0.000000 0.000000 0.000000 0.000000 10.000000 
L_Toe3_01 0.000000 0.000000 0.000000 0.000000 0.000000 0.000000 10.000000 
planeAlignerLeft 0.000000 0.000000 0.000000 0.000000 0.000000 0.000000 10.000000 
L_Toe1_02 0.000000 0.000000 0.000000 0.000000 0.000000 0.000000 10.000000 
L_Toe1_03 0.000000 0.000000 0.000000 0.000000 0.000000 0.000000 10.000000 
L_Toe2_02 0.000000 0.000000 0.000000 0.000000 0.000000 0.000000 10.000000 
L_Toe2_03 0.000000 0.000000 0.000000 0.000000 0.000000 0.000000 10.000000 
L_Toe3_02 0.000000 0.000000 0.000000 0.000000 0.000000 0.000000 10.000000 
L_Toe3_03 0.000000 0.000000 0.000000 0.000000 0.000000 0.000000 10.000000 
planeLockWeightLeft 0.000000 0.000000 0.000000 0.000000 0.000000 0.000000 10.000000 
R_Leg01 0.000000 0.000000 0.000000 0.000000 0.000000 0.000000 10.000000 
R_Leg02 0.000000 0.000000 0.000000 0.000000 0.000000 0.000000 10.000000 
R_Leg03 0.000000 0.000000 0.000000 0.000000 0.000000 0.000000 10.000000 
R_Foot 0.000000 0.000000 0.000000 0.000000 0.000000 0.000000 10.000000 
planeAlignerRight 0.000000 0.000000 0.000000 0.000000 0.000000 0.000000 10.000000 
R_Toe1_01 0.000000 0.000000 0.000000 0.000000 0.000000 0.000000 10.000000 
R_Toe2_01 0.000000 0.000000 0.000000 0.000000 0.000000 0.000000 10.000000 
R_Toe3_01 0.000000 0.000000 0.000000 0.000000 0.000000 0.000000 10.000000 
planeLockWeightRight 0.000000 0.000000 0.000000 0.000000 0.000000 0.000000 10.000000 
R_Toe1_02 0.000000 0.000000 0.000000 0.000000 0.000000 0.000000 10.000000 
R_Toe1_03 0.000000 0.000000 0.000000 0.000000 0.000000 0.000000 10.000000 
R_Toe2_02 0.000000 0.000000 0.000000 0.000000 0.000000 0.000000 10.000000 
R_Toe2_03 0.000000 0.000000 0.000000 0.000000 0.000000 0.000000 10.000000 
R_Toe3_02 0.000000 0.000000 0.000000 0.000000 0.000000 0.000000 10.000000 
R_Toe3_03 0.000000 0.000000 0.000000 0.000000 0.000000 0.000000 10.000000 
Rear_Leg02 0.000000 0.000000 0.000000 0.000000 0.000000 0.000000 10.000000 
Rear_Leg03 0.000000 0.000000 0.000000 0.000000 0.000000 0.000000 10.000000 
Rear_Leg04 0.000000 0.000000 0.000000 0.000000 0.000000 0.000000 10.000000 
Rear_Foot 0.000000 0.000000 0.000000 0.000000 0.000000 0.000000 10.000000 
planeAlignerCenter 0.000000 0.000000 0.000000 0.000000 0.000000 0.000000 10.000000 
Rear_Toe1_01 0.000000 0.000000 0.000000 0.000000 0.000000 0.000000 10.000000 
Rear_Toe2_01 0.000000 0.000000 0.000000 0.000000 0.000000 0.000000 10.000000 
Rear_Toe3_01 0.000000 0.000000 0.000000 0.000000 0.000000 0.000000 10.000000 
planeLockWeightCenter 0.000000 0.000000 0.000000 0.000000 0.000000 0.000000 10.000000 
Rear_Toe1_02 0.000000 0.000000 0.000000 0.000000 0.000000 0.000000 10.000000 
Rear_Toe1_03 0.000000 0.000000 0.000000 0.000000 0.000000 0.000000 10.000000 
Rear_Toe2_02 0.000000 0.000000 0.000000 0.000000 0.000000 0.000000 10.000000 
Rear_Toe2_03 0.000000 0.000000 0.000000 0.000000 0.000000 0.000000 10.000000 
Rear_Toe3_02 0.000000 0.000000 0.000000 0.000000 0.000000 0.000000 10.000000 
Rear_Toe3_03 0.000000 0.000000 0.000000 0.000000 0.000000 0.000000 10.000000 
Back_Bone 0.000000 0.000000 0.000000 0.000000 0.000000 0.000000 10.000000 
Head 0.000000 0.000000 0.000000 0.000000 0.000000 0.000000 10.000000 
Motor_Bone 0.000000 0.000000 0.000000 0.000000 0.000000 0.000000 10.000000 
Ping_Mechanism 0.000000 0.000000 0.000000 0.000000 0.000000 0.000000 10.000000 
BN_LookIK 0.000000 0.000000 0.000000 0.000000 0.000000 0.000000 10.000000 
bottomMouth 0.000000 0.000000 0.000000 0.000000 0.000000 0.000000 10.000000 
L_Mouth01 0.000000 0.000000 0.000000 0.000000 0.000000 0.000000 10.000000 
L_mouthFront 0.000000 0.000000 0.000000 0.000000 0.000000 0.000000 10.000000 
mouthGun 0.000000 0.000000 0.000000 0.000000 0.000000 0.000000 10.000000 
R_Mouth01 0.000000 0.000000 0.000000 0.000000 0.000000 0.000000 10.000000 
R_mouthFront 0.000000 0.000000 0.000000 0.000000 0.000000 0.000000 10.000000 
TopMouth 0.000000 0.000000 0.000000 0.000000 0.000000 0.000000 10.000000 
weapon_bone 0.000000 0.000000 0.000000 0.000000 0.000000 0.000000 10.000000 
#Beginning of Data. Separated by tabs
#Fr	Tx	Ty	Tz	Rx	Ry	Rz	SF
[Pinger_Root]
94 0.000000 0.000000 0.000000 -0.000075 -0.000000 -0.000020 0.000000
95 0.000000 0.000000 0.000000 -0.000075 -0.000000 -0.000020 0.000000
96 0.000000 0.000000 0.000000 -0.000075 -0.000000 -0.000020 0.000000
[Pelvis]
94 5.713295 1002.308472 3652.127441 -90.023857 -82.745613 89.995918 3787.174316
95 5.784014 1002.308472 3651.977539 -90.026466 -82.749123 89.996864 3787.030029
96 5.854734 1002.308472 3651.827393 -90.029015 -82.752594 89.997841 3786.885254
[L_Hip]
94 5.766392 125.831482 872.656799 -121.855164 -74.309326 30.031721 881.701050
95 5.766392 125.831482 872.656799 -121.855164 -74.309326 30.031721 881.701050
96 5.766392 125.831482 872.656799 -121.855164 -74.309326 30.031721 881.701050
[R_Hip]
94 5.765438 125.836372 -872.654907 -62.006908 72.295975 26.002958 881.699829
95 5.765438 125.836372 -872.654907 -62.006908 72.295975 26.002958 881.699829
96 5.765438 125.836372 -872.654907 -62.006908 72.295975 26.002958 881.699829
[Rear_Leg01]
94 -192.298416 -925.602966 -0.001907 176.247101 -1.856747 -124.939095 945.367432
95 -192.298416 -925.602966 -0.001907 176.245346 -1.856057 -124.939720 945.367432
96 -192.298416 -925.602966 -0.001907 176.243576 -1.855367 -124.940323 945.367432
[Spine1]
94 290.604584 5.007505 0.000477 0.025610 -0.001927 16.015764 290.647736
95 290.604584 5.007505 0.000477 0.026929 -0.002113 16.019222 290.647736
96 290.604584 5.007505 0.000477 0.028247 -0.002300 16.022682 290.647736
[L_Leg01]
94 761.932007 -0.002384 -0.069261 73.194008 -37.955250 -74.267380 761.932068
95 761.932007 -0.002384 -0.069261 73.191635 -37.960052 -74.262489 761.932068
96 761.932007 -0.002384 -0.069261 73.189240 -37.964844 -74.257584 761.932068
[L_Leg02]
94 1441.140503 -0.000954 -0.000715 3.699388 0.375919 -110.088509 1441.140503
95 1441.140503 -0.000954 -0.000715 3.700259 0.376340 -110.096596 1441.140503
96 1441.140503 -0.000954 -0.000715 3.701132 0.376761 -110.104706 1441.140503
[L_Leg03]
94 1686.963989 -0.000715 -0.000954 -0.071344 0.039566 129.755615 1686.963989
95 1686.963989 -0.000715 -0.000954 -0.071420 0.039736 129.762100 1686.963989
96 1686.963989 -0.000715 -0.000954 -0.071495 0.039906 129.768555 1686.963989
[L_Foot]
94 3041.570068 -30.715107 11.297464 1.817111 24.658335 38.994225 3041.746094
95 3041.570068 -30.715107 11.297464 1.815515 24.657881 38.997940 3041.746094
96 3041.570068 -30.715107 11.297464 1.813918 24.657431 39.001671 3041.746094
[L_Toe1_01]
94 -188.216690 -224.732346 -21.137953 94.536530 -11.874324 -178.539001 293.899567
95 -188.216690 -224.732346 -21.137953 94.536530 -11.874324 -178.539001 293.899567
96 -188.216690 -224.732346 -21.137953 94.536530 -11.874324 -178.539001 293.899567
[L_Toe2_01]
94 200.746536 -219.926590 148.838394 -89.387451 -33.868404 -48.468094 332.896027
95 200.746536 -219.926590 148.838394 -89.388100 -33.868530 -48.467445 332.896027
96 200.746536 -219.926590 148.838394 -89.388725 -33.868645 -48.466785 332.896027
[L_Toe3_01]
94 188.832520 -219.859131 -191.078659 -97.050049 10.775689 -57.811543 347.140900
95 188.832520 -219.859131 -191.078659 -97.049744 10.775579 -57.810802 347.140900
96 188.832520 -219.859131 -191.078659 -97.049454 10.775473 -57.810085 347.140900
[planeAlignerLeft]
94 0.812531 -811.448792 -0.314951 0.000000 -90.000000 -90.001900 811.449280
95 0.812531 -811.448792 -0.314951 0.000000 -90.000000 -90.001900 811.449280
96 0.812531 -811.448792 -0.314951 0.000000 -90.000000 -90.001900 811.449280
[L_Toe1_02]
94 413.761139 0.000477 0.000000 0.000203 -25.410625 -0.000182 413.761139
95 413.761139 0.000477 0.000000 0.000203 -25.410625 -0.000182 413.761139
96 413.761139 0.000477 0.000000 0.000203 -25.410625 -0.000182 413.761139
[L_Toe1_03]
94 464.317322 0.000358 -0.000089 0.004342 58.635971 0.004342 464.317322
95 464.317322 0.000358 -0.000089 0.004342 58.635971 0.004342 464.317322
96 464.317322 0.000358 -0.000089 0.004342 58.635971 0.004342 464.317322
[L_Toe2_02]
94 342.235809 -0.000477 0.000238 0.001191 -70.156403 0.001191 342.235809
95 342.235809 -0.000477 0.000238 0.001191 -70.156387 0.001191 342.235809
96 342.235809 -0.000477 0.000238 0.001191 -70.156403 0.001191 342.235809
[L_Toe2_03]
94 420.210846 -0.000715 0.000000 0.013353 79.915703 0.013353 420.210846
95 420.210846 -0.000715 0.000000 0.013353 79.915703 0.013353 420.210846
96 420.210846 -0.000715 0.000000 0.013353 79.915703 0.013353 420.210846
[L_Toe3_02]
94 329.270111 0.000954 0.000000 0.001176 -83.130447 0.001176 329.270111
95 329.270111 0.000954 0.000000 0.001176 -83.130447 0.001176 329.270111
96 329.270111 0.000954 0.000000 0.001176 -83.130447 0.001176 329.270111
[L_Toe3_03]
94 439.137451 -0.001907 0.000954 179.990875 65.540901 179.998047 439.137451
95 439.137451 -0.001907 0.000954 179.990875 65.540901 179.998047 439.137451
96 439.137451 -0.001907 0.000954 179.990875 65.540901 179.998047 439.137451
[planeLockWeightLeft]
94 -0.000954 0.000238 -0.000305 -0.011826 -0.004376 0.005620 0.001029
95 -0.000954 0.000238 -0.000305 -0.011826 -0.004376 0.005620 0.001029
96 -0.000954 0.000238 -0.000305 -0.011826 -0.004376 0.005620 0.001029
[R_Leg01]
94 761.455627 -0.001907 -0.000358 96.628151 -27.273689 78.337280 761.455688
95 761.455627 -0.001907 -0.000358 96.628563 -27.279873 78.336380 761.455688
96 761.455627 -0.001907 -0.000358 96.628967 -27.286045 78.335472 761.455688
[R_Leg02]
94 1441.140625 0.000000 -0.000238 -1.102139 -0.453176 -132.691910 1441.140625
95 1441.140625 0.000000 -0.000238 -1.102287 -0.453209 -132.704346 1441.140625
96 1441.140625 0.000000 -0.000238 -1.102435 -0.453243 -132.716797 1441.140625
[R_Leg03]
94 1686.963989 0.000954 0.001431 0.113904 -0.069901 141.057434 1686.963989
95 1686.963989 0.000954 0.001431 0.114133 -0.070020 141.065018 1686.963989
96 1686.963989 0.000954 0.001431 0.114362 -0.070139 141.072601 1686.963989
[R_Foot]
94 3041.560059 -30.531288 -11.204481 -15.300070 -25.040401 50.773109 3041.734131
95 3041.560059 -30.531288 -11.204481 -15.300385 -25.040333 50.778313 3041.734131
96 3041.560059 -30.531288 -11.204481 -15.300705 -25.040268 50.783520 3041.734131
[planeAlignerRight]
94 -0.635147 -812.270569 -0.364304 0.000000 -89.960434 -90.005180 812.270874
95 -0.635147 -812.270569 -0.364304 0.000000 -89.960434 -90.005180 812.270874
96 -0.635147 -812.270569 -0.364304 0.000000 -89.960434 -90.005180 812.270874
[R_Toe1_01]
94 -188.383347 -224.864899 21.052242 58.205795 26.476618 -166.994675 294.101532
95 -188.383347 -224.864899 21.052242 58.205814 26.476660 -166.994644 294.101532
96 -188.383347 -224.864899 21.052242 58.205833 26.476702 -166.994614 294.101532
[R_Toe2_01]
94 200.637817 -220.002121 -148.787384 -55.994591 39.712746 -29.524965 332.857574
95 200.637817 -220.002121 -148.787384 -55.994591 39.712746 -29.524965 332.857574
96 200.637817 -220.002121 -148.787384 -55.994591 39.712746 -29.524965 332.857574
[R_Toe3_01]
94 188.606735 -220.092957 191.126343 -53.843517 11.160723 -73.285088 347.192566
95 188.606735 -220.092957 191.126343 -53.843517 11.160751 -73.285034 347.192566
96 188.606735 -220.092957 191.126343 -53.843517 11.160779 -73.284988 347.192566
[planeLockWeightRight]
94 -0.000477 0.000000 0.000000 -0.011823 -0.004379 -0.000027 0.000477
95 -0.000477 0.000000 0.000000 -0.011823 -0.004379 -0.000027 0.000477
96 -0.000477 0.000000 0.000000 -0.011823 -0.004379 -0.000027 0.000477
[R_Toe1_02]
94 413.762085 0.000477 -0.000119 0.000006 -25.434675 -0.000005 413.762085
95 413.762085 0.000477 -0.000119 0.000006 -25.434675 -0.000005 413.762085
96 413.762085 0.000477 -0.000119 0.000006 -25.434675 -0.000005 413.762085
[R_Toe1_03]
94 464.317810 0.000000 0.001088 0.003184 46.737961 0.003184 464.317810
95 464.317810 0.000000 0.001088 0.003184 46.737907 0.003184 464.317810
96 464.317810 0.000000 0.001088 0.003184 46.737862 0.003184 464.317810
[R_Toe2_02]
94 342.234741 -0.000954 0.000238 0.001235 -53.660015 0.001235 342.234741
95 342.234741 -0.000954 0.000238 0.001235 -53.660004 0.001235 342.234741
96 342.234741 -0.000954 0.000238 0.001235 -53.660015 0.001235 342.234741
[R_Toe2_03]
94 420.210846 0.000715 -0.000268 -0.003602 51.671577 0.000100 420.210846
95 420.210846 0.000715 -0.000268 -0.003602 51.671577 0.000100 420.210846
96 420.210846 0.000715 -0.000268 -0.003602 51.671577 0.000100 420.210846
[R_Toe3_02]
94 329.270355 -0.000477 -0.000954 -0.002373 -66.445053 -0.002373 329.270355
95 329.270355 -0.000477 -0.000954 -0.002373 -66.445053 -0.002373 329.270355
96 329.270355 -0.000477 -0.000954 -0.002373 -66.445053 -0.002373 329.270355
[R_Toe3_03]
94 439.137939 0.000238 0.001431 0.005869 66.928558 0.005869 439.137939
95 439.137939 0.000238 0.001431 0.005869 66.928558 0.005869 439.137939
96 439.137939 0.000238 0.001431 0.005869 66.928558 0.005869 439.137939
[Rear_Leg02]
94 1162.777710 -0.029802 0.005960 -3.866243 7.261757 -97.497681 1162.777710
95 1162.777710 -0.029802 0.005960 -3.866991 7.261412 -97.502998 1162.777710
96 1162.777710 -0.029802 0.005960 -3.867738 7.261066 -97.508316 1162.777710
[Rear_Leg03]
94 607.192505 -0.013351 -0.073195 0.010389 -0.005313 70.530212 607.192505
95 607.192505 -0.013351 -0.073195 0.010389 -0.005313 70.530891 607.192505
96 607.192505 -0.013351 -0.073195 0.010389 -0.005313 70.531563 607.192505
[Rear_Leg04]
94 995.874512 -0.020504 -0.011921 -0.040870 -0.017281 71.521973 995.874573
95 995.874512 -0.020504 -0.011921 -0.040871 -0.017279 71.526039 995.874573
96 995.874512 -0.020504 -0.011921 -0.040871 -0.017278 71.530098 995.874573
[Rear_Foot]
94 3096.176270 -0.067472 -0.041425 95.103386 82.897675 -79.218018 3096.176270
95 3096.176270 -0.067472 -0.041425 95.119438 82.899635 -79.198517 3096.176270
96 3096.176270 -0.067472 -0.041425 95.135658 82.901596 -79.179008 3096.176270
[planeAlignerCenter]
94 0.350077 0.966311 -838.790894 0.000009 0.000003 -179.999985 838.791565
95 0.350077 0.966311 -838.790894 0.000009 0.000003 -179.999985 838.791565
96 0.350077 0.966311 -838.790894 0.000009 0.000003 -179.999985 838.791565
[Rear_Toe1_01]
94 0.653352 83.966492 -371.173737 5.366372 30.470621 103.554329 380.553192
95 0.653352 83.966492 -371.173737 5.366226 30.470724 103.553764 380.553192
96 0.653352 83.966492 -371.173737 5.366079 30.470819 103.553192 380.553192
[Rear_Toe2_01]
94 178.200760 -294.826019 -362.060547 -8.738444 22.955477 -73.351883 499.765686
95 178.200760 -294.826019 -362.060547 -8.738418 22.955530 -73.351402 499.765686
96 178.200760 -294.826019 -362.060547 -8.738387 22.955574 -73.350906 499.765686
[Rear_Toe3_01]
94 -153.359680 -308.780914 -362.060852 3.777630 19.494356 -119.566093 499.952881
95 -153.359680 -308.780914 -362.060852 3.777685 19.494328 -119.566040 499.952881
96 -153.359680 -308.780914 -362.060852 3.777740 19.494303 -119.565956 499.952881
[planeLockWeightCenter]
94 -0.000062 0.000238 0.000000 -0.011814 -0.004373 -0.000015 0.000246
95 -0.000062 0.000238 0.000000 -0.011814 -0.004373 -0.000015 0.000246
96 -0.000062 0.000238 0.000000 -0.011814 -0.004373 -0.000015 0.000246
[Rear_Toe1_02]
94 379.707825 0.194073 0.000477 -0.000343 -33.047874 0.006991 379.707855
95 379.707825 0.194073 0.000477 -0.000343 -33.048779 0.006991 379.707855
96 379.707825 0.194073 0.000477 -0.000343 -33.049679 0.006991 379.707855
[Rear_Toe1_03]
94 500.129700 0.165701 0.000119 -0.004071 60.584045 -0.000456 500.129761
95 500.129700 0.165701 0.000119 -0.004071 60.584244 -0.000456 500.129761
96 500.129700 0.165701 0.000119 -0.004071 60.584385 -0.000456 500.129761
[Rear_Toe2_02]
94 340.494507 0.000238 -0.000954 0.001179 -79.094414 0.001179 340.494507
95 340.494507 0.000238 -0.000954 0.001179 -79.094398 0.001179 340.494507
96 340.494507 0.000238 -0.000954 0.001179 -79.094398 0.001179 340.494507
[Rear_Toe2_03]
94 433.103577 0.000000 0.000238 0.031673 85.752869 0.031673 433.103546
95 433.103577 0.000000 0.000238 0.031673 85.752869 0.031673 433.103546
96 433.103577 0.000000 0.000238 0.031673 85.752869 0.031673 433.103546
[Rear_Toe3_02]
94 340.494141 -0.000358 -0.000477 -0.002471 -50.096046 -0.002471 340.494171
95 340.494141 -0.000358 -0.000477 -0.002471 -50.096046 -0.002471 340.494171
96 340.494141 -0.000358 -0.000477 -0.002471 -50.096046 -0.002471 340.494171
[Rear_Toe3_03]
94 433.103577 0.001431 -0.000238 0.000412 44.446445 -0.003381 433.103546
95 433.103577 0.001431 -0.000238 0.000412 44.446495 -0.003381 433.103546
96 433.103577 0.001431 -0.000238 0.000412 44.446548 -0.003381 433.103546
[Back_Bone]
94 1312.175781 -701.934692 0.000954 0.029541 0.001233 -85.673027 1488.125488
95 1312.175781 -701.934692 0.000954 0.029374 0.001239 -85.673904 1488.125488
96 1312.175781 -701.934692 0.000954 0.029208 0.001246 -85.674789 1488.125488
[Head]
94 1406.159424 809.709290 0.001431 0.001938 0.001324 21.295856 1622.625488
95 1406.159424 809.709290 0.001431 0.001938 0.001324 21.297195 1622.625488
96 1406.159424 809.709290 0.001431 0.001938 0.001324 21.298538 1622.625488
[Motor_Bone]
94 1158.364380 -417.834747 0.000477 -0.000105 0.000046 -105.985291 1231.419434
95 1158.364380 -417.834747 0.000477 -0.000105 0.000046 -105.985291 1231.419434
96 1158.364380 -417.834747 0.000477 -0.000105 0.000046 -105.985291 1231.419434
[Ping_Mechanism]
94 1249.094604 -447.692139 0.006849 0.000103 -0.000053 82.120995 1326.900757
95 1249.075684 -447.684875 0.007268 0.000103 -0.000053 82.120995 1326.880493
96 1249.056641 -447.677673 0.007688 0.000103 -0.000053 82.120995 1326.860107
[BN_LookIK]
94 193.241119 1380.371704 -0.002861 0.000000 89.965736 -31.038179 1393.832153
95 193.241119 1380.371704 -0.002861 0.000000 89.965736 -31.038179 1393.832153
96 193.241119 1380.371704 -0.002861 0.000000 89.965736 -31.038179 1393.832153
[bottomMouth]
94 -435.092926 615.759399 -0.000954 -0.000022 0.000016 73.527184 753.966492
95 -435.092926 615.759399 -0.000954 -0.000022 0.000016 73.527184 753.966492
96 -435.092926 615.759399 -0.000954 -0.000022 0.000016 73.527184 753.966492
[L_Mouth01]
94 554.440979 7.658243 838.222046 150.204178 23.759130 109.605339 1005.027161
95 554.440979 7.658243 838.222046 150.204178 23.759130 109.605339 1005.027161
96 554.440979 7.658243 838.222046 150.204178 23.759130 109.605339 1005.027161
[L_mouthFront]
94 551.629089 934.514771 339.150421 0.000081 2.804060 79.119301 1136.941284
95 551.629089 934.514771 339.150421 0.000081 2.804060 79.119301 1136.941284
96 551.629089 934.514771 339.150421 0.000081 2.804060 79.119301 1136.941284
[mouthGun]
94 55.332661 1627.420898 0.000000 0.000023 0.000009 -11.038128 1628.361328
95 55.332661 1627.420898 0.000000 0.000023 0.000009 -11.038128 1628.361328
96 55.332661 1627.420898 0.000000 0.000023 0.000009 -11.038128 1628.361328
[R_Mouth01]
94 554.442383 7.659197 -838.223938 29.795891 -23.759109 109.605331 1005.029541
95 554.442383 7.659197 -838.223938 29.795891 -23.759109 109.605331 1005.029541
96 554.442383 7.659197 -838.223938 29.795891 -23.759109 109.605331 1005.029541
[R_mouthFront]
94 551.629089 934.514282 -339.151367 0.000029 -2.803930 79.119133 1136.941162
95 551.629089 934.514282 -339.151367 0.000029 -2.803930 79.119133 1136.941162
96 551.629089 934.514282 -339.151367 0.000029 -2.803930 79.119133 1136.941162
[TopMouth]
94 461.269867 -56.106091 -0.008583 -0.000059 -0.000268 92.025169 464.669525
95 461.269867 -56.106091 -0.008583 -0.000059 -0.000268 92.025169 464.669525
96 461.269867 -56.106091 -0.008583 -0.000059 -0.000268 92.025169 464.669525
[weapon_bone]
94 -987.239868 1448.372803 0.001431 0.000000 89.965736 -31.038221 1752.833740
95 -987.239868 1448.372803 0.001431 0.000000 89.965736 -31.038221 1752.833740
96 -987.239868 1448.372803 0.001431 0.000000 89.965736 -31.038221 1752.833740
